sfk_cyclingleg_x_-0.11_y_-0.05_states
version=1
nRows=11
nColumns=53
inDegrees=yes

# SIMM Motion File Header:
name sfk_cyclingleg_x_-0.11_y_-0.05_states
datacolumns 53
datarows 11
otherdata 1
range 0.00000000 0.03311639
endheader
time	/jointset/bb/crank_angle/value	/jointset/bb/crank_angle/speed	/jointset/spindle/pedal_angle_r/value	/jointset/spindle/pedal_angle_r/speed	/jointset/ground_pelvis/pelvis_tilt/value	/jointset/ground_pelvis/pelvis_tilt/speed	/jointset/ground_pelvis/pelvis_list/value	/jointset/ground_pelvis/pelvis_list/speed	/jointset/ground_pelvis/pelvis_rotation/value	/jointset/ground_pelvis/pelvis_rotation/speed	/jointset/ground_pelvis/pelvis_tx/value	/jointset/ground_pelvis/pelvis_tx/speed	/jointset/ground_pelvis/pelvis_ty/value	/jointset/ground_pelvis/pelvis_ty/speed	/jointset/ground_pelvis/pelvis_tz/value	/jointset/ground_pelvis/pelvis_tz/speed	/jointset/hip_r/hip_angle_r/value	/jointset/hip_r/hip_angle_r/speed	/jointset/hip_r/hip_adduction_r/value	/jointset/hip_r/hip_adduction_r/speed	/jointset/hip_r/hip_rotation_r/value	/jointset/hip_r/hip_rotation_r/speed	/jointset/knee_r/knee_angle_r/value	/jointset/knee_r/knee_angle_r/speed	/jointset/knee_r/tib_tx_r/value	/jointset/knee_r/tib_tx_r/speed	/jointset/knee_r/tib_ty_r/value	/jointset/knee_r/tib_ty_r/speed	/jointset/tib_pat_r/pat_angle_r/value	/jointset/tib_pat_r/pat_angle_r/speed	/jointset/tib_pat_r/pat_tx_r/value	/jointset/tib_pat_r/pat_tx_r/speed	/jointset/tib_pat_r/pat_ty_r/value	/jointset/tib_pat_r/pat_ty_r/speed	/jointset/ankle_r/ankle_angle_r/value	/jointset/ankle_r/ankle_angle_r/speed	/jointset/subtalar_r/subtalar_angle_r/value	/jointset/subtalar_r/subtalar_angle_r/speed	/jointset/mtp_r/mtp_angle_r/value	/jointset/mtp_r/mtp_angle_r/speed	/forceset/bifemlh_r/activation	/forceset/bifemlh_r/fiber_length	/forceset/bifemsh_r/activation	/forceset/bifemsh_r/fiber_length	/forceset/glut_max2_r/activation	/forceset/glut_max2_r/fiber_length	/forceset/vas_int_r/activation	/forceset/vas_int_r/fiber_length	/forceset/med_gas_r/activation	/forceset/med_gas_r/fiber_length	/forceset/tib_ant_r/activation	/forceset/tib_ant_r/fiber_length
      0.00000000	    -10.13487855	   -480.13863232	      5.83649468	    610.08661832	     -0.00000000	     -0.00000000	      0.00000000	     -0.00000000	      0.00000000	     -0.00000000	     -0.11000000	      0.00000000	     -0.05000000	      0.00000000	      0.00000000	      0.00000000	     83.50153158	     26.03198276	      4.08770058	      1.48372769	     -3.71691778	     15.07209556	   -114.53833460	    148.25319932	     -0.00182093	      0.04900597	     -0.49428920	      0.04830553	     17.64997227	     -0.14516058	      0.02216558	      0.07200210	     -0.02416745	      0.01158626	     27.42255895	    -45.67683461	      0.00000000	      0.00000000	      0.00000000	     -0.00000000	      0.05000000	      0.13861564	      0.05000000	      0.14494621	      0.05000000	      0.15529885	      0.05000000	      0.16013413	      0.05000000	      0.13016108	      0.05000000	      0.11106871
      0.00111157	    -10.66858783	   -480.13863232	      6.51440651	    609.64662208	     -0.00000000	     -0.00000000	      0.00000000	      0.00000000	     -0.00000000	     -0.00000000	     -0.11000000	      0.00000000	     -0.05000000	      0.00000000	      0.00000000	      0.00000000	     83.52926948	     23.87485990	      4.08936082	      1.50343181	     -3.70007160	     15.23794576	   -114.37240689	    150.29004025	     -0.00176620	      0.04946481	     -0.49423511	      0.04901528	     17.64980440	     -0.15691402	      0.02224610	      0.07287250	     -0.02415449	      0.01171766	     27.37159993	    -46.00882755	      0.00000000	      0.00000000	      0.00000000	      0.00000000	      0.04920822	      0.13861649	      0.04920822	      0.14494874	      0.04920822	      0.15529978	      0.04920822	      0.16012148	      0.04920822	      0.13016315	      0.04920822	      0.11107026
      0.00549242	    -12.77199963	   -480.13863232	      9.18131290	    607.87541386	     -0.00000000	     -0.00000000	      0.00000000	      0.00000000	     -0.00000000	     -0.00000000	     -0.11000000	     -0.00000000	     -0.05000000	      0.00000000	      0.00000000	     -0.00000000	     83.61518752	     15.34240784	      4.09611294	      1.57840063	     -3.63192914	     15.86405388	   -113.69665857	    158.17281305	     -0.00154575	      0.05114232	     -0.49401431	      0.05177998	     17.64901121	     -0.20589140	      0.02257267	      0.07618742	     -0.02410206	      0.01221104	     27.16740495	    -47.17543296	      0.00000000	      0.00000000	      0.00000000	      0.00000000	      0.04622239	      0.13863784	      0.04622239	      0.14500493	      0.04622239	      0.15531997	      0.04622239	      0.15991998	      0.04622239	      0.13021452	      0.04622239	      0.11112018
      0.00987326	    -14.87541144	   -480.13863232	     11.84035048	    606.05681207	     -0.00000000	      0.00000000	      0.00000000	      0.00000000	     -0.00000000	     -0.00000000	     -0.11000000	     -0.00000000	     -0.05000000	      0.00000000	     -0.00000000	     -0.00000000	     83.66365047	      6.77953779	      4.10318358	      1.64878542	     -3.56113905	     16.44682317	   -112.98688871	    165.82127089	     -0.00131841	      0.05260970	     -0.49378151	      0.05449060	     17.64799477	     -0.25875459	      0.02291336	      0.07931661	     -0.02404756	      0.01266422	     26.95858872	    -48.11947965	      0.00000000	      0.00000000	      0.00000000	      0.00000000	      0.04343830	      0.13869088	      0.04343830	      0.14511001	      0.04343830	      0.15535843	      0.04343830	      0.15958628	      0.04343830	      0.13031261	      0.04343830	      0.11127835
      0.01425410	    -16.97882324	   -480.13863232	     14.49134434	    604.20553686	      0.00000000	      0.00000000	      0.00000000	      0.00000000	     -0.00000000	     -0.00000000	     -0.11000000	     -0.00000000	     -0.05000000	      0.00000000	     -0.00000000	     -0.00000000	     83.67457914	     -1.78923530	      4.11055184	      1.71421764	     -3.48788909	     16.98725596	   -112.24413259	    173.23158815	     -0.00108511	      0.05386604	     -0.49353696	      0.05714417	     17.64673917	     -0.31497855	      0.02326734	      0.08225883	     -0.02399117	      0.01307570	     26.74611340	    -48.84705615	      0.00000000	      0.00000000	      0.00000000	      0.00000000	      0.04083995	      0.13877473	      0.04083995	      0.14523549	      0.04083995	      0.15540281	      0.04083995	      0.15930777	      0.04083995	      0.13042838	      0.04083995	      0.11151416
      0.01759449	    -18.58267295	   -480.13863232	     16.50724773	    602.78034579	      0.00000000	      0.00000000	      0.00000000	      0.00000000	     -0.00000000	     -0.00000000	     -0.11000000	     -0.00000000	     -0.05000000	      0.00000000	     -0.00000000	     -0.00000000	     83.65770330	     -8.31234836	      4.11635630	      1.76057578	     -3.43049646	     17.37165963	   -111.65626560	    178.72017610	     -0.00090378	      0.05468232	     -0.49334276	      0.05912739	     17.64561267	     -0.35974442	      0.02354569	      0.08437645	     -0.02394701	      0.01336059	     26.58222071	    -49.26088840	      0.00000000	      0.00000000	      0.00000000	      0.00000000	      0.03897452	      0.13885421	      0.03897452	      0.14533977	      0.03897452	      0.15543473	      0.03897452	      0.15901710	      0.03897452	      0.13051882	      0.03897452	      0.11170551
      0.02093488	    -20.18652266	   -480.13863232	     18.51837944	    601.34945045	      0.00000000	      0.00000000	      0.00000000	      0.00000000	     -0.00000000	     -0.00000000	     -0.11000000	     -0.00000000	     -0.05000000	      0.00000000	     -0.00000000	     -0.00000000	     83.61906861	    -14.81535035	      4.12231029	      1.80373181	     -3.37185878	     17.73282444	   -111.05029978	    184.06783173	     -0.00071992	      0.05537657	     -0.49314198	      0.06107452	     17.64433432	     -0.40583757	      0.02383092	      0.08638544	     -0.02390194	      0.01361988	     26.41714367	    -49.55679996	      0.00000000	      0.00000000	      0.00000000	      0.00000000	      0.03720276	      0.13894084	      0.03720276	      0.14545072	      0.03720276	      0.15546228	      0.03720276	      0.15877616	      0.03720276	      0.13061813	      0.03720276	      0.11189589
      0.02532171	    -22.29280940	   -480.13863232	     21.15227359	    599.47001755	      0.00000000	      0.00000000	      0.00000000	      0.00000000	     -0.00000000	     -0.00000000	     -0.11000000	     -0.00000000	     -0.05000000	      0.00000000	     -0.00000000	     -0.00000000	     83.53542323	    -23.30920805	      4.13033832	      1.85535429	     -3.29308844	     18.17303143	   -110.22780336	    190.87582134	     -0.00047532	      0.05610452	     -0.49286855	      0.06357473	     17.64241842	     -0.46787794	      0.02421538	      0.08885976	     -0.02384151	      0.01392065	     26.19920209	    -49.77298684	      0.00000000	      0.00000000	      0.00000000	     -0.00000000	      0.03500917	      0.13905641	      0.03500917	      0.14560663	      0.03500917	      0.15548969	      0.03500917	      0.15832465	      0.03500917	      0.13075197	      0.03500917	      0.11214469
      0.02715686	    -23.17393508	   -480.13863232	     22.25167032	    598.68594069	      0.00000000	      0.00000000	      0.00000000	      0.00000000	     -0.00000000	     -0.00000000	     -0.11000000	     -0.00000000	     -0.05000000	      0.00000000	     -0.00000000	     -0.00000000	     83.48940333	    -26.84247789	      4.13376154	      1.87520021	     -3.25957847	     18.34607201	   -109.87496463	    193.65131178	     -0.00037213	      0.05634774	     -0.49275094	      0.06460090	     17.64153568	     -0.49418407	      0.02437935	      0.08983999	     -0.02381586	      0.01403284	     26.10782474	    -49.80740343	      0.00000000	      0.00000000	      0.00000000	      0.00000000	      0.03413392	      0.13910341	      0.03413392	      0.14567625	      0.03413392	      0.15549790	      0.03413392	      0.15823399	      0.03413392	      0.13081653	      0.03413392	      0.11224826
      0.03092348	    -24.98243601	   -480.13863232	     24.50367437	    597.08455373	      0.00000000	      0.00000000	      0.00000000	      0.00000000	     -0.00000000	     -0.00000000	     -0.11000000	     -0.00000000	     -0.05000000	      0.00000000	     -0.00000000	     -0.00000000	     83.37470446	    -34.04959626	      4.14089660	      1.91262554	     -3.18983587	     18.68146698	   -109.13502041	    199.21403840	     -0.00015912	      0.05673509	     -0.49250370	      0.06666954	     17.63957204	     -0.54851727	      0.02472139	      0.09175157	     -0.02376261	      0.01423753	     25.92023190	    -49.77866657	      0.00000000	      0.00000000	      0.00000000	      0.00000000	      0.03241140	      0.13919498	      0.03241140	      0.14582520	      0.03241140	      0.15550846	      0.03241140	      0.15793844	      0.03241140	      0.13094620	      0.03241140	      0.11245946
      0.03311639	    -26.03533542	   -480.13863232	     25.81200934	    596.15889003	      0.00000000	      0.00000000	      0.00000000	      0.00000000	     -0.00000000	     -0.00000000	     -0.11000000	     -0.00000000	     -0.05000000	      0.00000000	     -0.00000000	     -0.00000000	     83.29546614	    -38.21410585	      4.14511270	      1.93233586	     -3.14866649	     18.86487214	   -108.69469127	    202.36979567	     -0.00003452	      0.05689214	     -0.49235620	      0.06785010	     17.63833444	     -0.58020523	      0.02492375	      0.09280292	     -0.02373127	      0.01434066	     25.81114766	    -49.70244424	      0.00000000	      0.00000000	      0.00000000	      0.00000000	      0.03145233	      0.13924459	      0.03145233	      0.14591695	      0.03145233	      0.15551068	      0.03145233	      0.15770799	      0.03145233	      0.13102829	      0.03145233	      0.11258145
